<svg width="500" height="362" viewBox="0 0 500 362" fill="none" xmlns="http://www.w3.org/2000/svg">
<g clip-path="url(#clip0)">
<path d="M249.96 306.1H107.96L100.19 77.73H242.19L249.96 306.1Z" fill="#407BFF"/>
<path d="M257.05 299.01H115.05L107.27 70.64H249.27L257.05 299.01Z" fill="#407BFF"/>
<path opacity="0.3" d="M257.05 299.01H115.05L107.27 70.64H249.27L257.05 299.01Z" fill="white"/>
<path d="M209.473 164.604C224.677 149.137 224.03 123.847 208.028 108.116C192.026 92.3856 166.728 92.1714 151.524 107.638C136.32 123.104 136.967 148.395 152.969 164.125C168.971 179.856 194.268 180.07 209.473 164.604Z" fill="#407BFF"/>
<path d="M213.47 136.14C213.675 141.582 212.487 146.985 210.02 151.84C207.357 157.072 203.29 161.458 198.273 164.506C193.257 167.555 187.49 169.146 181.62 169.1C175.612 169.068 169.718 167.456 164.53 164.426C159.342 161.397 155.041 157.056 152.06 151.84C149.28 147.06 147.727 141.666 147.54 136.14C147.356 131.855 148.044 127.577 149.564 123.567C151.084 119.556 153.403 115.897 156.381 112.81C159.359 109.724 162.934 107.275 166.887 105.612C170.841 103.95 175.091 103.109 179.38 103.14C188.215 103.203 196.687 106.666 203.035 112.811C209.383 118.957 213.121 127.311 213.47 136.14V136.14Z" fill="white"/>
<path opacity="0.6" d="M210 151.84C207.337 157.072 203.27 161.458 198.253 164.506C193.237 167.555 187.47 169.146 181.6 169.1C175.592 169.068 169.698 167.456 164.51 164.426C159.322 161.397 155.021 157.056 152.04 151.84C160.497 146.074 170.504 143.009 180.74 143.05C191.141 143.072 201.309 146.127 210 151.84Z" fill="#407BFF"/>
<path opacity="0.6" d="M190.772 135.318C196.363 129.631 196.125 120.331 190.241 114.547C184.357 108.762 175.054 108.684 169.464 114.371C163.873 120.058 164.111 129.357 169.995 135.142C175.879 140.926 185.181 141.005 190.772 135.318Z" fill="#407BFF"/>
<path d="M228.52 216.31H137.94L137.33 198.31H227.91L228.52 216.31Z" fill="white"/>
<path d="M229.62 248.48H139.03L138.42 230.48H229.01L229.62 248.48Z" fill="white"/>
<path d="M194.66 232.96L172.83 235.96C172.622 235.984 172.421 236.05 172.239 236.156C172.058 236.261 171.9 236.402 171.776 236.571C171.652 236.74 171.565 236.933 171.519 237.138C171.473 237.342 171.47 237.554 171.51 237.76L174.38 252.39C174.474 252.819 174.725 253.198 175.084 253.452C175.443 253.705 175.884 253.815 176.32 253.76L198.15 250.76C198.358 250.734 198.558 250.665 198.738 250.558C198.918 250.451 199.075 250.309 199.198 250.139C199.32 249.969 199.407 249.776 199.452 249.572C199.497 249.367 199.5 249.156 199.46 248.95L196.6 234.32C196.506 233.891 196.254 233.514 195.895 233.262C195.536 233.01 195.095 232.902 194.66 232.96V232.96ZM188.39 247.78L184.39 248.31L184 243.59C183.588 243.412 183.225 243.137 182.941 242.789C182.657 242.441 182.461 242.03 182.37 241.59C182.297 241.249 182.295 240.897 182.367 240.556C182.438 240.215 182.58 239.893 182.783 239.61C182.987 239.327 183.248 239.09 183.548 238.915C183.849 238.739 184.184 238.628 184.53 238.59C185.24 238.499 185.959 238.677 186.544 239.09C187.129 239.503 187.538 240.12 187.69 240.82C187.777 241.243 187.75 241.681 187.613 242.09C187.476 242.499 187.234 242.865 186.91 243.15L188.39 247.78Z" fill="#407BFF"/>
<path d="M192.5 232.17C192.114 232.219 191.724 232.122 191.405 231.898C191.087 231.675 190.864 231.34 190.78 230.96L190.5 229.53C190.1 227.579 189.007 225.838 187.421 224.632C185.836 223.426 183.867 222.835 181.88 222.97C180.877 223.027 179.898 223.299 179.01 223.769C178.122 224.238 177.345 224.892 176.732 225.688C176.119 226.484 175.685 227.403 175.458 228.381C175.232 229.36 175.219 230.376 175.42 231.36L175.74 233.01C175.777 233.193 175.776 233.381 175.736 233.564C175.696 233.746 175.619 233.918 175.509 234.069C175.399 234.219 175.258 234.345 175.097 234.438C174.935 234.532 174.756 234.59 174.57 234.61V234.61C174.183 234.664 173.791 234.569 173.471 234.344C173.152 234.12 172.93 233.782 172.85 233.4L172.58 232.01C172.305 230.711 172.296 229.37 172.553 228.067C172.81 226.764 173.328 225.527 174.075 224.43C174.822 223.332 175.784 222.397 176.902 221.68C178.02 220.964 179.271 220.481 180.58 220.26C183.419 219.783 186.332 220.418 188.716 222.032C191.099 223.647 192.769 226.117 193.38 228.93L193.7 230.57C193.737 230.755 193.735 230.946 193.693 231.13C193.652 231.314 193.572 231.488 193.458 231.639C193.345 231.79 193.201 231.915 193.036 232.007C192.871 232.098 192.688 232.154 192.5 232.17V232.17Z" fill="#407BFF"/>
<path d="M214.67 273.69H155.7L155.31 261.97H214.27L214.67 273.69Z" fill="#407BFF"/>
<path d="M186.22 207.31C186.238 207.737 186.168 208.164 186.016 208.564C185.864 208.964 185.632 209.329 185.335 209.636C185.037 209.944 184.681 210.188 184.286 210.354C183.892 210.519 183.468 210.603 183.04 210.6C182.158 210.593 181.313 210.248 180.678 209.636C180.044 209.023 179.668 208.191 179.63 207.31C179.612 206.883 179.682 206.456 179.834 206.056C179.986 205.656 180.218 205.291 180.515 204.984C180.813 204.676 181.169 204.432 181.564 204.266C181.958 204.101 182.382 204.017 182.81 204.02C183.692 204.024 184.539 204.369 185.174 204.982C185.809 205.594 186.184 206.428 186.22 207.31V207.31Z" fill="#263238"/>
<path d="M172 207.31C172.019 207.738 171.951 208.165 171.799 208.566C171.647 208.966 171.416 209.331 171.118 209.639C170.82 209.947 170.463 210.191 170.068 210.356C169.673 210.522 169.248 210.604 168.82 210.6C167.939 210.593 167.095 210.247 166.462 209.635C165.829 209.023 165.456 208.19 165.42 207.31C165.402 206.883 165.472 206.456 165.624 206.056C165.776 205.656 166.008 205.291 166.305 204.984C166.603 204.676 166.959 204.432 167.354 204.266C167.748 204.101 168.172 204.017 168.6 204.02C169.481 204.025 170.327 204.369 170.961 204.982C171.594 205.595 171.966 206.429 172 207.31V207.31Z" fill="#263238"/>
<path d="M157.87 207.31C157.888 207.737 157.818 208.164 157.666 208.564C157.514 208.964 157.282 209.329 156.985 209.636C156.687 209.944 156.331 210.188 155.936 210.354C155.542 210.519 155.118 210.603 154.69 210.6C153.808 210.595 152.963 210.251 152.329 209.638C151.696 209.025 151.323 208.191 151.29 207.31C151.272 206.883 151.342 206.456 151.494 206.056C151.646 205.656 151.878 205.291 152.175 204.984C152.473 204.676 152.829 204.432 153.224 204.266C153.618 204.101 154.042 204.017 154.47 204.02C155.351 204.025 156.197 204.369 156.831 204.982C157.464 205.595 157.836 206.429 157.87 207.31V207.31Z" fill="#263238"/>
<path d="M200.39 207.31C200.408 207.737 200.338 208.164 200.186 208.564C200.034 208.964 199.802 209.329 199.505 209.636C199.207 209.944 198.851 210.188 198.456 210.354C198.062 210.519 197.638 210.603 197.21 210.6C196.329 210.595 195.483 210.251 194.849 209.638C194.216 209.025 193.843 208.191 193.81 207.31C193.795 206.884 193.867 206.459 194.021 206.061C194.175 205.664 194.408 205.301 194.707 204.997C195.005 204.692 195.362 204.451 195.756 204.288C196.15 204.125 196.574 204.044 197 204.05C197.875 204.057 198.714 204.398 199.344 205.005C199.975 205.611 200.349 206.436 200.39 207.31V207.31Z" fill="#263238"/>
<path d="M214.56 207.31C214.579 207.738 214.511 208.165 214.359 208.566C214.207 208.966 213.976 209.331 213.678 209.639C213.38 209.947 213.023 210.191 212.628 210.356C212.233 210.522 211.808 210.604 211.38 210.6C210.499 210.593 209.655 210.247 209.022 209.635C208.389 209.023 208.016 208.19 207.98 207.31C207.962 206.883 208.032 206.456 208.184 206.056C208.336 205.656 208.568 205.291 208.865 204.984C209.163 204.676 209.519 204.432 209.914 204.266C210.308 204.101 210.732 204.017 211.16 204.02C212.041 204.025 212.887 204.369 213.521 204.982C214.154 205.595 214.526 206.429 214.56 207.31V207.31Z" fill="#263238"/>
<path d="M333.91 119.33C335.24 121.47 336.35 123.51 337.49 125.64C338.63 127.77 339.66 129.91 340.67 132.1C342.731 136.534 344.436 141.126 345.77 145.83C345.95 146.42 346.08 147.05 346.23 147.66L346.45 148.59L346.56 149.05L346.69 149.81C346.916 151.534 346.81 153.285 346.38 154.97C345.69 157.586 344.64 160.093 343.26 162.42C340.792 166.649 337.809 170.555 334.38 174.05L330.17 170.87C332.283 166.985 334.163 162.978 335.8 158.87C336.529 157.06 337.043 155.17 337.33 153.24C337.422 152.651 337.395 152.049 337.25 151.47L336.85 150.25C336.69 149.75 336.54 149.25 336.35 148.74C334.829 144.615 333.069 140.581 331.08 136.66C329.08 132.66 326.93 128.66 324.78 124.84L333.91 119.33Z" fill="#FF8B7B"/>
<path d="M331.24 169.48L326.64 171.91L331.92 178.09C331.92 178.09 335.22 175.86 335.37 172.46L331.24 169.48Z" fill="#FF8B7B"/>
<path d="M320.47 175.72L326.12 180.21L331.92 178.09L326.64 171.91L320.47 175.72Z" fill="#FF8B7B"/>
<path d="M301.15 86.61C301.04 87.17 300.65 87.56 300.29 87.49C299.93 87.42 299.72 86.9 299.83 86.35C299.94 85.8 300.33 85.35 300.7 85.47C301.07 85.59 301.26 86.05 301.15 86.61Z" fill="#263238"/>
<path d="M300.7 87.57C299.693 89.1363 298.475 90.5564 297.08 91.79C297.409 92.1314 297.809 92.3975 298.251 92.5701C298.692 92.7427 299.166 92.8177 299.64 92.79L300.7 87.57Z" fill="#FF5652"/>
<path d="M298.9 107.19V100.63L307.58 101.63C307.58 101.63 307.44 107.27 302.58 108.93L298.9 107.19Z" fill="#FF8B7B"/>
<path d="M301.4 95.91L307.51 97.67L307.62 101.68L298.94 100.63L301.4 95.91Z" fill="#FF8B7B"/>
<path opacity="0.2" d="M307.51 97.67L301.4 95.91L300.21 98.19C300.275 99.9865 300.836 101.73 301.832 103.227C302.827 104.724 304.218 105.916 305.85 106.67C306.9 105.204 307.513 103.47 307.62 101.67L307.51 97.67Z" fill="black"/>
<path d="M303.81 83.94C303.874 83.9383 303.936 83.9185 303.99 83.8829C304.043 83.8472 304.085 83.7973 304.111 83.7387C304.137 83.6802 304.147 83.6154 304.137 83.552C304.128 83.4885 304.101 83.4289 304.06 83.38C303.709 82.9833 303.268 82.6765 302.774 82.4851C302.279 82.2938 301.747 82.2234 301.22 82.28C301.134 82.2947 301.057 82.3429 301.006 82.4142C300.956 82.4854 300.936 82.5738 300.95 82.66C300.965 82.7468 301.013 82.8245 301.083 82.8767C301.154 82.9289 301.243 82.9516 301.33 82.94C301.747 82.899 302.168 82.9585 302.558 83.1133C302.948 83.2681 303.295 83.5138 303.57 83.83C303.601 83.8634 303.638 83.8904 303.679 83.9093C303.72 83.9281 303.765 83.9386 303.81 83.94Z" fill="#263238"/>
<path d="M316.59 96.73C315.59 101.88 314.97 109.01 318.59 112.44C318.59 112.44 317.19 117.66 307.59 117.66C297.08 117.66 302.54 113.08 302.54 113.08C306.91 111.72 306.87 106.75 305.87 102.75L316.59 96.73Z" fill="#FF8B7B"/>
<path d="M320.54 115.88C321.48 114.56 321.44 110.37 320.44 109.63C318.83 108.44 311.92 108.16 302.63 110.3C303.63 114.36 301.48 116.48 301.48 116.48L320.54 115.88Z" fill="#407BFF"/>
<path d="M351.8 353.29C351.515 353.39 351.212 353.433 350.91 353.416C350.608 353.399 350.312 353.322 350.04 353.19C349.937 353.094 349.866 352.968 349.837 352.83C349.809 352.693 349.824 352.549 349.88 352.42C349.911 352.312 349.966 352.212 350.041 352.127C350.115 352.043 350.207 351.975 350.31 351.93C351.26 351.47 353.44 352.36 353.54 352.4C353.57 352.412 353.595 352.433 353.613 352.46C353.631 352.486 353.64 352.518 353.64 352.55C353.64 352.582 353.631 352.614 353.616 352.642C353.6 352.67 353.577 352.693 353.55 352.71C352.986 352.958 352.4 353.152 351.8 353.29V353.29ZM350.65 352.16C350.584 352.176 350.52 352.199 350.46 352.23C350.398 352.253 350.342 352.29 350.296 352.339C350.251 352.387 350.218 352.446 350.2 352.51C350.11 352.81 350.2 352.91 350.26 352.94C350.64 353.26 352.04 352.94 353.03 352.57C352.277 352.258 351.464 352.118 350.65 352.16V352.16Z" fill="#407BFF"/>
<path d="M353.51 352.72H353.43C352.63 352.49 350.93 351.28 350.91 350.49C350.909 350.364 350.952 350.242 351.03 350.144C351.108 350.046 351.217 349.977 351.34 349.95C351.459 349.906 351.586 349.888 351.712 349.898C351.838 349.909 351.96 349.947 352.07 350.01C353.01 350.49 353.61 352.43 353.63 352.52C353.644 352.544 353.651 352.572 353.651 352.6C353.651 352.628 353.644 352.656 353.63 352.68C353.615 352.696 353.596 352.707 353.575 352.714C353.554 352.721 353.532 352.723 353.51 352.72V352.72ZM351.51 350.23H351.43C351.23 350.3 351.23 350.4 351.23 350.45C351.23 350.92 352.37 351.87 353.23 352.25C353.02 351.69 352.56 350.58 351.95 350.25C351.815 350.188 351.661 350.181 351.52 350.23H351.51Z" fill="#407BFF"/>
<path d="M299.86 354.47C298.96 354.47 298.09 354.34 297.8 353.94C297.724 353.833 297.684 353.706 297.684 353.575C297.684 353.444 297.724 353.317 297.8 353.21C297.857 353.112 297.934 353.027 298.025 352.96C298.116 352.893 298.22 352.845 298.33 352.82C299.5 352.5 301.96 353.9 302.06 353.96C302.091 353.975 302.115 354 302.13 354.031C302.144 354.062 302.148 354.097 302.14 354.13C302.136 354.164 302.122 354.196 302.098 354.222C302.075 354.247 302.044 354.264 302.01 354.27C301.301 354.4 300.581 354.467 299.86 354.47ZM298.75 353.1C298.644 353.083 298.536 353.083 298.43 353.1C298.362 353.114 298.298 353.142 298.241 353.181C298.185 353.221 298.137 353.271 298.1 353.33C297.98 353.54 298.03 353.64 298.1 353.7C298.43 354.16 300.2 354.17 301.51 353.98C300.655 353.513 299.718 353.214 298.75 353.1V353.1Z" fill="#407BFF"/>
<path d="M302 354.27H301.93C301.08 353.89 299.4 352.37 299.53 351.57C299.53 351.38 299.69 351.15 300.15 351.11C300.314 351.091 300.481 351.106 300.639 351.154C300.798 351.202 300.944 351.282 301.07 351.39C301.711 352.156 302.095 353.104 302.17 354.1C302.17 354.129 302.163 354.157 302.151 354.183C302.139 354.208 302.122 354.231 302.1 354.25C302.069 354.266 302.035 354.273 302 354.27ZM300.28 351.42H300.18C299.88 351.42 299.86 351.56 299.86 351.6C299.78 352.08 300.92 353.28 301.79 353.8C301.714 352.997 301.388 352.239 300.86 351.63C300.696 351.49 300.486 351.415 300.27 351.42H300.28Z" fill="#407BFF"/>
<path d="M309.72 354.1H302.69L301.99 337.81H309.02L309.72 354.1Z" fill="#FF8B7B"/>
<path d="M361.35 350.85L354.48 352.34L347.57 337.16L354.45 335.68L361.35 350.85Z" fill="#FF8B7B"/>
<path d="M353.81 351.65L361.54 349.98C361.675 349.951 361.816 349.969 361.939 350.031C362.063 350.093 362.162 350.195 362.22 350.32L364.9 356.14C364.971 356.281 365.008 356.437 365.008 356.595C365.007 356.753 364.969 356.908 364.897 357.049C364.825 357.189 364.721 357.311 364.592 357.403C364.464 357.495 364.316 357.556 364.16 357.58C361.46 358.11 360.11 358.24 356.72 358.97C354.63 359.43 349.91 360.58 347.02 361.2C344.13 361.82 343.14 359.05 344.27 358.54C349.32 356.23 351.42 354.2 352.79 352.31C353.038 351.973 353.401 351.738 353.81 351.65V351.65Z" fill="#263238"/>
<path d="M302.74 353.29H310.42C310.559 353.291 310.694 353.339 310.803 353.426C310.912 353.513 310.989 353.634 311.02 353.77L312.41 360.02C312.451 360.171 312.456 360.33 312.424 360.483C312.392 360.636 312.325 360.78 312.228 360.902C312.131 361.025 312.006 361.123 311.864 361.188C311.722 361.254 311.566 361.285 311.41 361.28C308.64 361.23 304.64 361.07 301.16 361.07C297.08 361.07 293.57 361.29 288.79 361.29C285.9 361.29 285.1 358.37 286.31 358.1C291.81 356.9 296.31 356.77 301.06 353.84C301.559 353.506 302.14 353.316 302.74 353.29V353.29Z" fill="#263238"/>
<path d="M331.17 114.05C337.76 115.56 343.17 132.39 343.17 132.39L330 142.46C326.582 138.805 324.17 134.326 323 129.46C320.67 120.64 324.43 112.49 331.17 114.05Z" fill="#407BFF"/>
<path opacity="0.4" d="M331.17 114.05C337.76 115.56 343.17 132.39 343.17 132.39L330 142.46C326.582 138.805 324.17 134.326 323 129.46C320.67 120.64 324.43 112.49 331.17 114.05Z" fill="black"/>
<path d="M296.5 134.12C294.86 135.89 293.22 137.47 291.5 139.12C290.65 139.92 289.79 140.72 288.91 141.49L287.58 142.66L287.25 142.95L286.68 143.41C286.093 143.879 285.444 144.262 284.75 144.55C283.978 144.878 283.149 145.048 282.31 145.05C281.594 145.053 280.882 144.928 280.21 144.68C279.464 144.396 278.784 143.964 278.21 143.41C277.477 142.694 276.94 141.802 276.65 140.82C276.498 140.336 276.401 139.836 276.36 139.33C276.308 138.738 276.308 138.142 276.36 137.55C276.41 137.07 276.47 136.65 276.55 136.26C276.824 134.896 277.212 133.558 277.71 132.26C278.16 131.026 278.677 129.817 279.26 128.64C279.9 127.37 280.51 126.44 281.12 125.38C283.598 121.321 286.425 117.487 289.57 113.92C292.683 110.374 296.114 107.121 299.82 104.2L303.5 107.99C300.92 111.45 298.38 115.16 296.03 118.81C293.691 122.439 291.555 126.195 289.63 130.06C289.2 131 288.63 132.06 288.36 132.82C288.002 133.703 287.692 134.604 287.43 135.52C287.178 136.345 286.987 137.187 286.86 138.04C286.853 138.173 286.853 138.307 286.86 138.44C286.86 138.52 286.86 138.56 286.86 138.35C286.844 138.126 286.8 137.904 286.73 137.69C286.514 136.981 286.118 136.34 285.58 135.83C285.102 135.391 284.541 135.051 283.93 134.83C283.393 134.627 282.824 134.522 282.25 134.52C281.698 134.513 281.15 134.619 280.64 134.83C280.467 134.901 280.3 134.984 280.14 135.08L280.52 134.73L281.73 133.63L284.12 131.39C285.7 129.9 287.29 128.31 288.79 126.83L296.5 134.12Z" fill="#FF8B7B"/>
<path opacity="0.2" d="M325.52 126.41C329.1 129.95 330.27 136.41 330.52 142.01L329.94 142.46C326.522 138.805 324.11 134.326 322.94 129.46C322.81 128.94 322.69 128.46 322.6 127.89L325.52 126.41Z" fill="black"/>
<path d="M289.51 121.05C288.07 128.65 287.17 144.26 291.34 175.16H329C329.26 169.39 325.63 141.21 331.2 114C327.038 113.201 322.83 112.67 318.6 112.41C313.271 112.104 307.929 112.104 302.6 112.41C300.84 112.57 299.1 112.83 297.6 113.1C295.605 113.45 293.763 114.397 292.319 115.817C290.874 117.237 289.895 119.061 289.51 121.05Z" fill="#407BFF"/>
<path opacity="0.4" d="M289.51 121.05C288.07 128.65 287.17 144.26 291.34 175.16H329C329.26 169.39 325.63 141.21 331.2 114C327.038 113.201 322.83 112.67 318.6 112.41C313.271 112.104 307.929 112.104 302.6 112.41C300.84 112.57 299.1 112.83 297.6 113.1C295.605 113.45 293.763 114.397 292.319 115.817C290.874 117.237 289.895 119.061 289.51 121.05Z" fill="black"/>
<path opacity="0.2" d="M295.27 132.32L288.47 130.69C288.26 134.81 288.24 139.91 288.54 146.22C291.67 142.66 295.67 137.1 295.27 132.32Z" fill="black"/>
<path opacity="0.2" d="M301.99 337.82L302.35 346.21H309.39L309.03 337.82H301.99Z" fill="black"/>
<path opacity="0.2" d="M354.45 335.68L347.57 337.17L351.13 344.99L358.01 343.5L354.45 335.68Z" fill="black"/>
<path d="M319.93 89.21C318.13 95.95 317.41 99.99 313.25 102.79C307 107.05 299.2 102.17 299 95.05C298.78 88.62 301.77 78.67 309 77.31C310.589 77.0118 312.227 77.1231 313.761 77.6334C315.295 78.1437 316.674 79.0362 317.767 80.2268C318.861 81.4174 319.633 82.8668 320.012 84.4384C320.39 86.0101 320.362 87.6522 319.93 89.21V89.21Z" fill="#FF8B7B"/>
<path d="M304.15 89.46C303.81 88.56 302.26 81.59 303.72 79.78C305.18 77.97 321.83 79.28 324.29 81.7C328.38 85.7 325.54 89.3 321.07 93.93C317.71 97.41 317.58 101.33 315.88 101.93C312.88 102.93 308.3 101.99 307.38 98.82C306.46 95.65 304.15 89.46 304.15 89.46Z" fill="#263238"/>
<path d="M322.27 73.77C316.39 71.27 305.36 74.04 299.4 72.6C299.324 74.8162 300.053 76.9849 301.452 78.7055C302.851 80.426 304.825 81.5821 307.01 81.96C311.954 82.9022 316.977 83.3677 322.01 83.35C328.55 83.05 327.27 75.9 322.27 73.77Z" fill="#263238"/>
<path d="M323.19 81.91C325.338 82.1213 327.501 81.7081 329.42 80.72C330.52 83.38 324.47 84.11 323.19 81.91Z" fill="#263238"/>
<path d="M307.35 89.74C307.215 91.4742 306.512 93.1156 305.35 94.41C303.81 96.1 302.21 95.04 301.94 92.99C301.7 91.13 302.2 87.99 304.08 87.09C305.96 86.19 307.48 87.65 307.35 89.74Z" fill="#FF8B7B"/>
<path d="M304.69 175.19C304.69 175.19 312.69 228.94 317.06 249.08C321.85 271.13 347.59 344.08 347.59 344.08L360.18 341.35C360.18 341.35 342.18 281.89 338.18 251.06C335.08 227.38 328.99 175.17 328.99 175.17L304.69 175.19Z" fill="#407BFF"/>
<path d="M344.57 339.89C344.52 339.89 346.92 344.45 346.92 344.45L361.08 341.38L359.89 337.12L344.57 339.89Z" fill="#263238"/>
<path opacity="0.3" d="M309.74 194.34C318.97 196.15 317.99 230.57 316.88 248.28C314.22 235.76 310.32 211.68 307.66 194.59C308.305 194.272 309.038 194.184 309.74 194.34V194.34Z" fill="black"/>
<path d="M291.34 175.19C291.34 175.19 290.34 227.78 291.14 249.19C291.94 271.5 299.73 344.55 299.73 344.55H311.65C311.65 344.55 312.08 272.8 312.65 250.89C313.23 227.01 316.11 175.15 316.11 175.15L291.34 175.19Z" fill="#407BFF"/>
<path d="M297.44 339.85C297.38 339.85 298.11 344.79 298.11 344.79H312.6L313 340.38L297.44 339.85Z" fill="#263238"/>
<path d="M304.25 123.39C307.62 132.48 287.81 143.19 287.81 143.19L279.23 132.19C279.23 132.19 285 120.77 292 115.63C300.65 109.29 301.68 116.47 304.25 123.39Z" fill="#407BFF"/>
<path opacity="0.4" d="M304.25 123.39C307.62 132.48 287.81 143.19 287.81 143.19L279.23 132.19C279.23 132.19 285 120.77 292 115.63C300.65 109.29 301.68 116.47 304.25 123.39Z" fill="black"/>
<path d="M381.87 54.38C401.802 54.38 417.96 44.0826 417.96 31.38C417.96 18.6775 401.802 8.38 381.87 8.38C361.938 8.38 345.78 18.6775 345.78 31.38C345.78 44.0826 361.938 54.38 381.87 54.38Z" fill="#407BFF"/>
<path d="M368.85 42.96C366.473 42.9523 364.174 42.107 362.358 40.5726C360.542 39.0382 359.324 36.9128 358.92 34.57C358.522 32.0323 359.095 29.4378 360.523 27.3031C361.952 25.1683 364.132 23.6499 366.63 23.05V23.05C368.68 22.5777 370.826 22.7597 372.767 23.5705C374.707 24.3813 376.345 25.78 377.45 27.57L400.62 22.79C401.51 22.595 402.442 22.7431 403.228 23.2047C404.014 23.6662 404.597 24.4074 404.86 25.28C404.981 25.7388 405.008 26.2175 404.938 26.6868C404.868 27.1562 404.703 27.6063 404.453 28.0097C404.203 28.4131 403.873 28.7613 403.484 29.033C403.095 29.3047 402.655 29.4943 402.19 29.59L401.59 29.71C401.501 29.726 401.417 29.7623 401.344 29.816C401.271 29.8698 401.212 29.9396 401.17 30.02C401.133 30.1017 401.114 30.1903 401.114 30.28C401.114 30.3697 401.133 30.4583 401.17 30.54L401.58 31.6C401.717 31.9436 401.731 32.3243 401.617 32.6766C401.504 33.0289 401.272 33.3307 400.96 33.53C400.714 33.6819 400.506 33.8878 400.352 34.1322C400.198 34.3765 400.101 34.6528 400.07 34.94C400.041 35.2697 399.908 35.5816 399.69 35.8312C399.473 36.0808 399.182 36.2554 398.86 36.33L398.39 36.43C398.064 36.4902 397.728 36.4451 397.429 36.3013C397.131 36.1575 396.886 35.9223 396.73 35.63C396.522 35.2812 396.211 35.0059 395.84 34.8424C395.468 34.6789 395.055 34.6354 394.658 34.718C394.26 34.8005 393.898 35.005 393.623 35.303C393.347 35.6009 393.171 35.9774 393.12 36.38C393.092 36.7076 392.961 37.0178 392.745 37.2658C392.529 37.5139 392.241 37.687 391.92 37.76L391.45 37.86C391.124 37.9186 390.788 37.8728 390.49 37.7292C390.192 37.5855 389.947 37.3513 389.79 37.06C389.64 36.812 389.438 36.5995 389.198 36.4372C388.958 36.2749 388.686 36.1667 388.4 36.12C388.015 36.0737 387.661 35.8887 387.403 35.5996C387.145 35.3105 387.002 34.9373 387 34.55V33.41C386.996 33.3208 386.973 33.2336 386.932 33.1542C386.891 33.0748 386.833 33.0052 386.763 32.9502C386.693 32.8951 386.612 32.8559 386.525 32.8351C386.438 32.8144 386.348 32.8126 386.26 32.83L378.87 34.35C378.569 36.3974 377.644 38.3021 376.221 39.8051C374.799 41.3081 372.948 42.3364 370.92 42.75C370.239 42.8893 369.545 42.9596 368.85 42.96V42.96ZM366.85 23.96C364.582 24.4898 362.599 25.8593 361.3 27.7927C360.001 29.7262 359.483 32.0799 359.85 34.38C360.243 36.5199 361.389 38.4483 363.081 39.8165C364.773 41.1847 366.898 41.9023 369.073 41.8395C371.248 41.7767 373.328 40.9376 374.938 39.474C376.548 38.0104 377.581 36.019 377.85 33.86V33.5L386 31.85C386.234 31.7934 386.477 31.7897 386.713 31.8389C386.948 31.8882 387.17 31.9892 387.361 32.1348C387.553 32.2803 387.709 32.4667 387.82 32.6804C387.93 32.894 387.992 33.1296 388 33.37V34.51C388.002 34.6457 388.051 34.7765 388.139 34.8804C388.226 34.9842 388.347 35.0547 388.48 35.08C388.917 35.1426 389.334 35.3039 389.7 35.5517C390.065 35.7994 390.37 36.1272 390.59 36.51C390.643 36.6179 390.728 36.7067 390.834 36.764C390.94 36.8213 391.061 36.8444 391.18 36.83L391.64 36.73C391.757 36.7 391.86 36.6332 391.936 36.5395C392.012 36.4459 392.055 36.3303 392.06 36.21C392.123 35.5875 392.382 35.0011 392.8 34.5357C393.219 34.0702 393.774 33.7498 394.386 33.6206C394.998 33.4915 395.636 33.5604 396.206 33.8173C396.777 34.0743 397.251 34.506 397.56 35.05C397.611 35.1571 397.695 35.2455 397.799 35.3029C397.903 35.3603 398.022 35.3837 398.14 35.37L398.62 35.27C398.735 35.2382 398.836 35.1706 398.91 35.0771C398.984 34.9836 399.026 34.869 399.03 34.75C399.079 34.3109 399.229 33.889 399.466 33.5164C399.703 33.1438 400.023 32.8303 400.4 32.6C400.51 32.5205 400.591 32.4065 400.629 32.2761C400.667 32.1457 400.66 32.0063 400.61 31.88L400.2 30.82C400.115 30.6015 400.079 30.3671 400.094 30.1332C400.11 29.8993 400.176 29.6715 400.288 29.4658C400.4 29.2601 400.556 29.0814 400.745 28.9422C400.934 28.8031 401.15 28.7067 401.38 28.66L401.99 28.53C402.32 28.4596 402.633 28.3234 402.909 28.1294C403.185 27.9354 403.419 27.6877 403.598 27.4011C403.776 27.1145 403.895 26.7949 403.947 26.4614C403.999 26.1278 403.983 25.7873 403.9 25.46C403.705 24.8307 403.279 24.2985 402.708 23.9702C402.136 23.6419 401.462 23.5418 400.82 23.69L377 28.64L376.82 28.33C375.863 26.6263 374.377 25.2803 372.588 24.4956C370.798 23.7108 368.802 23.5298 366.9 23.98L366.85 23.96ZM368.85 39.24C367.608 39.2538 366.388 38.9064 365.34 38.24C364.1 37.4259 363.181 36.2069 362.739 34.7908C362.297 33.3748 362.36 31.8493 362.917 30.4745C363.474 29.0996 364.491 27.9606 365.794 27.2514C367.097 26.5423 368.605 26.307 370.062 26.5857C371.519 26.8644 372.834 27.6398 373.784 28.7797C374.733 29.9196 375.257 31.3534 375.268 32.8368C375.278 34.3201 374.774 35.7612 373.84 36.9142C372.907 38.0673 371.603 38.861 370.15 39.16V39.16C369.724 39.237 369.292 39.2705 368.86 39.26L368.85 39.24ZM368.85 27.43C368.477 27.4321 368.106 27.4689 367.74 27.54C367.043 27.6884 366.383 27.9725 365.796 28.3762C365.209 28.7799 364.707 29.2953 364.32 29.8928C363.932 30.4904 363.666 31.1584 363.536 31.8588C363.407 32.5593 363.417 33.2783 363.565 33.975C363.713 34.6717 363.998 35.3323 364.401 35.9191C364.805 36.506 365.32 37.0075 365.918 37.3952C366.515 37.7829 367.183 38.0491 367.884 38.1786C368.584 38.3081 369.303 38.2984 370 38.15V38.15C371.046 37.9323 372.004 37.4098 372.753 36.6485C373.502 35.8871 374.01 34.921 374.211 33.8718C374.412 32.8226 374.298 31.7374 373.883 30.753C373.468 29.7686 372.771 28.9289 371.88 28.34C370.995 27.7512 369.953 27.4412 368.89 27.45L368.85 27.43Z" fill="white"/>
<path opacity="0.6" d="M352.5 67.87C359.05 67.87 364.36 64.4853 364.36 60.31C364.36 56.1347 359.05 52.75 352.5 52.75C345.95 52.75 340.64 56.1347 340.64 60.31C340.64 64.4853 345.95 67.87 352.5 67.87Z" fill="#407BFF"/>
<path opacity="0.3" d="M333.63 70.96C336.32 70.96 338.5 69.5721 338.5 67.86C338.5 66.1479 336.32 64.76 333.63 64.76C330.94 64.76 328.76 66.1479 328.76 67.86C328.76 69.5721 330.94 70.96 333.63 70.96Z" fill="#407BFF"/>
</g>
<defs>
<clipPath id="clip0">
<rect width="500" height="361.29" fill="white"/>
</clipPath>
</defs>
</svg>
