<svg xmlns="http://www.w3.org/2000/svg" version="1.1" xmlns:xlink="http://www.w3.org/1999/xlink" xmlns:svgjs="http://svgjs.com/svgjs" width="1440" height="560" preserveAspectRatio="none" viewBox="0 0 1440 560"><g mask="url(&quot;#SvgjsMask1002&quot;)" fill="none"><rect width="1440" height="560" x="0" y="0" fill="rgba(30, 82, 137, 1)"></rect><path d="M0,617.661C117.462,631.934,234.467,583.693,333.464,518.881C431.938,454.412,498.615,356.703,555.768,253.811C617.037,143.509,696.073,27.368,675.642,-97.143C655.277,-221.248,542.534,-304.73,450.118,-390.03C366.532,-467.179,272.514,-525.828,166.507,-567.072C52.075,-611.594,-71.173,-677.803,-187.348,-638.05C-303.077,-598.449,-363.304,-472.986,-422.024,-365.686C-471.623,-275.053,-463.84,-169.233,-497.385,-71.513C-541.371,56.625,-700.95,171.283,-649.351,296.549C-598.451,420.117,-404.949,384.47,-285.155,443.71C-183.287,494.085,-112.813,603.953,0,617.661" fill="#18426e"></path><path d="M1440 928.131C1506.692 916.135 1543.269 845.514 1603.348 814.175 1672.216 778.251 1777.856 799.345 1816.29 731.846 1853.971 665.67 1791.071 586.308 1775.549 511.755 1761.184 442.76099999999997 1771.133 366.131 1728.469 310.03999999999996 1684.881 252.73399999999998 1614.063 222.06599999999997 1543.6779999999999 206.906 1476.331 192.401 1409.484 212.161 1342.175 226.83800000000002 1269.664 242.649 1181.654 238.01600000000002 1135.278 295.957 1088.894 353.908 1106.3980000000001 439.081 1113.126 513.003 1118.661 573.819 1151.442 625.058 1170.51 683.072 1192.551 750.134 1181.725 833.126 1233.952 880.6179999999999 1287.1779999999999 929.019 1369.194 940.867 1440 928.131" fill="#2462a4"></path></g><defs><mask id="SvgjsMask1002"><rect width="1440" height="560" fill="#ffffff"></rect></mask></defs></svg>